<?xml version="1.0" encoding="UTF-8" standalone="no"?>
<!-- Created with Inkscape (http://www.inkscape.org/) -->

<svg
   width="1920"
   height="1080"
   viewBox="0 0 508 285.75"
   version="1.1"
   id="svg5"
   inkscape:version="1.1 (c4e8f9e, 2021-05-24)"
   sodipodi:docname="drawing.svg"
   xmlns:inkscape="http://www.inkscape.org/namespaces/inkscape"
   xmlns:sodipodi="http://sodipodi.sourceforge.net/DTD/sodipodi-0.dtd"
   xmlns="http://www.w3.org/2000/svg"
   xmlns:svg="http://www.w3.org/2000/svg">
  <sodipodi:namedview
     id="namedview7"
     pagecolor="#ffffff"
     bordercolor="#666666"
     borderopacity="1.0"
     inkscape:pageshadow="2"
     inkscape:pageopacity="0.0"
     inkscape:pagecheckerboard="0"
     inkscape:document-units="px"
     showgrid="false"
     inkscape:zoom="0.85421449"
     inkscape:cx="1260.2221"
     inkscape:cy="527.3851"
     inkscape:window-width="1312"
     inkscape:window-height="789"
     inkscape:window-x="0"
     inkscape:window-y="25"
     inkscape:window-maximized="0"
     inkscape:current-layer="layer1" />
  <defs
     id="defs2" />
  <g
     inkscape:label="Layer 1"
     inkscape:groupmode="layer"
     id="layer1">
    <path
       id="path31"
       style="fill:#004d80;fill-opacity:1;fill-rule:evenodd;stroke:none;stroke-width:5.00001;stroke-miterlimit:4;stroke-dasharray:none;stroke-opacity:1"
       d="M 1293.1484 451.18359 A 158.63064 158.63064 0 0 0 1244.0176 541.44531 A 158.63064 158.63064 0 0 0 1290.2852 548.36133 A 158.63064 158.63064 0 0 0 1339.9609 540.29297 A 158.63064 158.63064 0 0 0 1293.1484 451.18359 z M 1292.0098 503.68359 C 1293.2684 503.68359 1294.4532 503.8639 1295.5625 504.22656 C 1296.6932 504.58923 1297.6956 505.12217 1298.5703 505.82617 C 1299.4663 506.50884 1300.2013 507.36272 1300.7773 508.38672 C 1301.3533 509.41072 1301.7159 510.58358 1301.8652 511.90625 L 1297.002 511.90625 C 1296.9166 511.33025 1296.7244 510.80918 1296.4258 510.33984 C 1296.1271 509.84918 1295.7546 509.42126 1295.3066 509.05859 C 1294.8586 508.69593 1294.3455 508.41856 1293.7695 508.22656 C 1293.2149 508.01323 1292.6284 507.90625 1292.0098 507.90625 C 1290.8791 507.90625 1289.9202 508.13012 1289.1309 508.57812 C 1288.3415 509.00479 1287.7016 509.59318 1287.2109 510.33984 C 1286.7203 511.06518 1286.3577 511.89532 1286.123 512.83398 C 1285.9097 513.77265 1285.8027 514.74343 1285.8027 515.74609 C 1285.8027 516.70609 1285.9097 517.64517 1286.123 518.5625 C 1286.3577 519.4585 1286.7203 520.26881 1287.2109 520.99414 C 1287.7016 521.71947 1288.3415 522.30786 1289.1309 522.75586 C 1289.9202 523.18253 1290.8791 523.39453 1292.0098 523.39453 C 1293.5458 523.39453 1294.7404 522.925 1295.5938 521.98633 C 1296.4684 521.04766 1297.0014 519.81139 1297.1934 518.27539 L 1302.0586 518.27539 C 1301.9306 519.70472 1301.5997 520.99448 1301.0664 522.14648 C 1300.5331 523.29848 1299.8297 524.28113 1298.9551 525.0918 C 1298.0804 525.90246 1297.0561 526.5206 1295.8828 526.94727 C 1294.7095 527.37393 1293.4178 527.58594 1292.0098 527.58594 C 1290.2604 527.58594 1288.6814 527.28874 1287.2734 526.69141 C 1285.8868 526.07274 1284.7139 525.22878 1283.7539 524.16211 C 1282.7939 523.09544 1282.0589 521.8473 1281.5469 520.41797 C 1281.0349 518.9673 1280.7773 517.41009 1280.7773 515.74609 C 1280.7773 514.03943 1281.0349 512.46239 1281.5469 511.01172 C 1282.0589 509.53972 1282.7939 508.25792 1283.7539 507.16992 C 1284.7139 506.08192 1285.8868 505.23 1287.2734 504.61133 C 1288.6814 503.99266 1290.2604 503.68359 1292.0098 503.68359 z M 1258.082 504.22656 L 1267.9395 504.22656 C 1269.4115 504.22656 1270.7765 504.46231 1272.0352 504.93164 C 1273.3152 505.40097 1274.4127 506.1043 1275.3301 507.04297 C 1276.2687 507.98164 1276.9939 509.1545 1277.5059 510.5625 C 1278.0392 511.9705 1278.3066 513.62477 1278.3066 515.52344 C 1278.3066 517.18744 1278.0927 518.72286 1277.666 520.13086 C 1277.2393 521.53886 1276.5895 522.7553 1275.7148 523.7793 C 1274.8615 524.8033 1273.7838 525.6136 1272.4824 526.21094 C 1271.2024 526.78694 1269.6888 527.07422 1267.9395 527.07422 L 1258.082 527.07422 L 1258.082 504.22656 z M 1305.457 504.22656 L 1315.3145 504.22656 C 1316.7865 504.22656 1318.1515 504.46231 1319.4102 504.93164 C 1320.6902 505.40097 1321.7877 506.1043 1322.7051 507.04297 C 1323.6437 507.98164 1324.3689 509.1545 1324.8809 510.5625 C 1325.4142 511.9705 1325.6816 513.62477 1325.6816 515.52344 C 1325.6816 517.18744 1325.4677 518.72286 1325.041 520.13086 C 1324.6143 521.53886 1323.9645 522.7553 1323.0898 523.7793 C 1322.2365 524.8033 1321.1588 525.6136 1319.8574 526.21094 C 1318.5774 526.78694 1317.0638 527.07422 1315.3145 527.07422 L 1305.457 527.07422 L 1305.457 504.22656 z M 1263.1074 508.45117 L 1263.1074 522.85156 L 1267.5859 522.85156 C 1268.3113 522.85156 1269.0166 522.73271 1269.6992 522.49805 C 1270.3819 522.26338 1270.9901 521.88099 1271.5234 521.34766 C 1272.0568 520.79299 1272.4827 520.07779 1272.8027 519.20312 C 1273.1227 518.32846 1273.2832 517.26062 1273.2832 516.00195 C 1273.2832 514.84995 1273.1644 513.81577 1272.9297 512.89844 C 1272.7164 511.95977 1272.3538 511.15938 1271.8418 510.49805 C 1271.3298 509.83671 1270.6483 509.33547 1269.7949 508.99414 C 1268.9629 508.63147 1267.9287 508.45117 1266.6914 508.45117 L 1263.1074 508.45117 z M 1310.4824 508.45117 L 1310.4824 522.85156 L 1314.9609 522.85156 C 1315.6863 522.85156 1316.3916 522.73271 1317.0742 522.49805 C 1317.7569 522.26338 1318.3651 521.88099 1318.8984 521.34766 C 1319.4318 520.79299 1319.8577 520.07779 1320.1777 519.20312 C 1320.4977 518.32846 1320.6582 517.26062 1320.6582 516.00195 C 1320.6582 514.84995 1320.5413 513.81577 1320.3066 512.89844 C 1320.0933 511.95977 1319.7288 511.15938 1319.2168 510.49805 C 1318.7048 509.83671 1318.0233 509.33547 1317.1699 508.99414 C 1316.3379 508.63147 1315.3037 508.45117 1314.0664 508.45117 L 1310.4824 508.45117 z "
       transform="scale(0.26458333)"
       inkscape:export-filename="/Users/jbourgeois/Desktop/research_fields.png"
       inkscape:export-xdpi="300"
       inkscape:export-ydpi="300" />
    <circle
       style="fill:none;fill-rule:evenodd;stroke:#004d80;stroke-width:1.32292;stroke-miterlimit:4;stroke-dasharray:none;stroke-opacity:1"
       id="path31-6"
       cx="341.39752"
       cy="103.3065"
       r="41.971024"
       inkscape:export-filename="/Users/jbourgeois/Desktop/research_fields.png"
       inkscape:export-xdpi="300"
       inkscape:export-ydpi="300" />
    <circle
       style="fill:none;fill-rule:evenodd;stroke:#004d80;stroke-width:1.32292;stroke-miterlimit:4;stroke-dasharray:none;stroke-opacity:1"
       id="path31-9-2"
       cx="313.11371"
       cy="149.86284"
       r="41.971024"
       inkscape:export-filename="/Users/jbourgeois/Desktop/research_fields.png"
       inkscape:export-xdpi="300"
       inkscape:export-ydpi="300" />
    <circle
       style="fill:none;fill-rule:evenodd;stroke:#004d80;stroke-width:1.32292;stroke-miterlimit:4;stroke-dasharray:none;stroke-opacity:1"
       id="path31-94-8"
       cx="370.50726"
       cy="150.50053"
       r="41.971024"
       inkscape:export-filename="/Users/jbourgeois/Desktop/research_fields.png"
       inkscape:export-xdpi="300"
       inkscape:export-ydpi="300" />
    <text
       xml:space="preserve"
       style="font-style:normal;font-variant:normal;font-weight:bold;font-stretch:normal;font-size:8.46667px;line-height:1.25;font-family:'Helvetica Neue';-inkscape-font-specification:'Helvetica Neue, Bold';font-variant-ligatures:normal;font-variant-caps:normal;font-variant-numeric:normal;font-variant-east-asian:normal;fill:#000000;fill-opacity:1;stroke:none;stroke-width:0.264583"
       x="341.83322"
       y="85.138252"
       id="text2139"
       inkscape:export-filename="/Users/jbourgeois/Desktop/research_fields.png"
       inkscape:export-xdpi="300"
       inkscape:export-ydpi="300"><tspan
         sodipodi:role="line"
         id="tspan2137"
         style="font-style:normal;font-variant:normal;font-weight:bold;font-stretch:normal;font-size:8.46667px;font-family:'Helvetica Neue';-inkscape-font-specification:'Helvetica Neue, Bold';font-variant-ligatures:normal;font-variant-caps:normal;font-variant-numeric:normal;font-variant-east-asian:normal;text-align:center;text-anchor:middle;stroke-width:0.264583"
         x="341.83322"
         y="85.138252">Data</tspan><tspan
         sodipodi:role="line"
         style="font-style:normal;font-variant:normal;font-weight:bold;font-stretch:normal;font-size:8.46667px;font-family:'Helvetica Neue';-inkscape-font-specification:'Helvetica Neue, Bold';font-variant-ligatures:normal;font-variant-caps:normal;font-variant-numeric:normal;font-variant-east-asian:normal;text-align:center;text-anchor:middle;stroke-width:0.264583"
         x="341.83322"
         y="95.721588"
         id="tspan2765">Science</tspan></text>
    <text
       xml:space="preserve"
       style="font-style:normal;font-variant:normal;font-weight:bold;font-stretch:normal;font-size:8.46667px;line-height:1.25;font-family:'Helvetica Neue';-inkscape-font-specification:'Helvetica Neue, Bold';font-variant-ligatures:normal;font-variant-caps:normal;font-variant-numeric:normal;font-variant-east-asian:normal;fill:#000000;fill-opacity:1;stroke:none;stroke-width:0.264583"
       x="383.15051"
       y="150.1658"
       id="text2139-8"
       inkscape:export-filename="/Users/jbourgeois/Desktop/research_fields.png"
       inkscape:export-xdpi="300"
       inkscape:export-ydpi="300"><tspan
         sodipodi:role="line"
         style="font-style:normal;font-variant:normal;font-weight:bold;font-stretch:normal;font-size:8.46667px;font-family:'Helvetica Neue';-inkscape-font-specification:'Helvetica Neue, Bold';font-variant-ligatures:normal;font-variant-caps:normal;font-variant-numeric:normal;font-variant-east-asian:normal;text-align:center;text-anchor:middle;stroke-width:0.264583"
         x="383.15051"
         y="150.1658"
         id="tspan2765-1">Participatory</tspan><tspan
         sodipodi:role="line"
         style="font-style:normal;font-variant:normal;font-weight:bold;font-stretch:normal;font-size:8.46667px;font-family:'Helvetica Neue';-inkscape-font-specification:'Helvetica Neue, Bold';font-variant-ligatures:normal;font-variant-caps:normal;font-variant-numeric:normal;font-variant-east-asian:normal;text-align:center;text-anchor:middle;stroke-width:0.264583"
         x="383.15051"
         y="160.74915"
         id="tspan5207">Design</tspan></text>
    <text
       xml:space="preserve"
       style="font-style:normal;font-variant:normal;font-weight:bold;font-stretch:normal;font-size:8.46667px;line-height:1.25;font-family:'Helvetica Neue';-inkscape-font-specification:'Helvetica Neue, Bold';font-variant-ligatures:normal;font-variant-caps:normal;font-variant-numeric:normal;font-variant-east-asian:normal;fill:#000000;fill-opacity:1;stroke:none;stroke-width:0.264583"
       x="300.5163"
       y="150.93626"
       id="text2139-8-0"
       inkscape:export-filename="/Users/jbourgeois/Desktop/research_fields.png"
       inkscape:export-xdpi="300"
       inkscape:export-ydpi="300"><tspan
         sodipodi:role="line"
         style="font-style:normal;font-variant:normal;font-weight:bold;font-stretch:normal;font-size:8.46667px;font-family:'Helvetica Neue';-inkscape-font-specification:'Helvetica Neue, Bold';font-variant-ligatures:normal;font-variant-caps:normal;font-variant-numeric:normal;font-variant-east-asian:normal;text-align:center;text-anchor:middle;stroke-width:0.264583"
         x="300.5163"
         y="150.93626"
         id="tspan2765-1-8">Human-Data</tspan><tspan
         sodipodi:role="line"
         style="font-style:normal;font-variant:normal;font-weight:bold;font-stretch:normal;font-size:8.46667px;font-family:'Helvetica Neue';-inkscape-font-specification:'Helvetica Neue, Bold';font-variant-ligatures:normal;font-variant-caps:normal;font-variant-numeric:normal;font-variant-east-asian:normal;text-align:center;text-anchor:middle;stroke-width:0.264583"
         x="300.5163"
         y="161.51961"
         id="tspan4447">Interaction</tspan></text>
  </g>
</svg>
