<?xml version="1.0" standalone="no"?>
<!DOCTYPE svg PUBLIC "-//W3C//DTD SVG 20010904//EN"
 "http://www.w3.org/TR/2001/REC-SVG-20010904/DTD/svg10.dtd">
<svg version="1.0" xmlns="http://www.w3.org/2000/svg"
 width="301.000000pt" height="301.000000pt" viewBox="0 0 301.000000 301.000000"
 preserveAspectRatio="xMidYMid meet">
<metadata>
Created by potrace 1.14, written by Peter Selinger 2001-2017
</metadata>
<g transform="translate(0.000000,301.000000) scale(0.100000,-0.100000)"
fill="#000000" stroke="none">
<path d="M0 2290 l0 -720 26 -6 c14 -4 57 -4 94 0 53 5 70 3 80 -9 9 -11 8
-19 -7 -39 -10 -14 -22 -26 -28 -26 -5 -1 -1 -5 10 -9 11 -5 29 -5 41 -1 11 5
38 6 60 4 21 -2 74 -7 117 -10 113 -9 115 -14 118 -225 1 -90 5 -174 10 -186
7 -18 3 -23 -19 -31 -26 -9 -267 -239 -291 -278 -11 -18 -12 -18 -6 3 6 23
-18 93 -32 93 -10 0 -43 73 -43 94 0 8 16 23 35 35 19 11 40 32 47 46 11 24 9
29 -18 50 -22 19 -41 24 -80 25 -58 0 -69 9 -79 61 -6 30 -3 39 11 47 12 7 25
7 37 0 10 -5 21 -7 24 -4 4 3 12 1 18 -4 17 -14 31 5 46 62 10 37 10 57 -1
101 -12 53 -14 55 -49 60 -40 5 -77 -6 -103 -30 -16 -14 -17 -66 -18 -704 l0
-689 1505 0 1505 0 0 691 0 692 -24 -46 c-33 -61 -61 -88 -75 -74 -23 23 -24
-6 -2 -48 28 -52 30 -85 7 -120 -22 -33 -49 -32 -78 4 -42 52 -72 65 -122 52
-25 -6 -47 -11 -51 -11 -14 0 -45 69 -45 100 1 45 49 105 79 97 30 -7 16 15
-29 49 -22 16 -42 36 -45 44 -4 8 -9 92 -11 185 -5 164 -18 265 -34 265 -17 0
-19 -36 -18 -297 1 -356 -2 -434 -13 -455 -10 -18 1 -46 29 -76 6 -7 12 -18
12 -23 0 -19 19 -8 36 19 29 49 123 65 155 26 6 -8 17 -14 25 -14 24 0 64 -72
64 -115 0 -46 -14 -65 -45 -65 -12 0 -30 -9 -40 -20 -10 -11 -13 -20 -7 -20
17 0 27 -87 12 -105 -7 -8 -9 -22 -6 -31 5 -13 18 -15 69 -12 l62 3 3 -30 c4
-41 -35 -97 -76 -110 -74 -25 -121 -85 -66 -85 14 0 23 -4 19 -10 -3 -5 0 -10
8 -10 20 0 28 -24 33 -94 2 -32 9 -65 15 -72 9 -12 9 -34 0 -98 -16 -105 -35
-128 -104 -124 l-46 3 -21 86 c-11 48 -20 93 -20 102 0 8 -16 71 -37 139 -23
78 -39 156 -43 214 -7 92 -15 114 -88 250 -15 29 -45 70 -67 93 -45 46 -283
180 -408 230 -42 17 -114 48 -160 70 -45 22 -83 38 -85 37 -1 -2 5 -19 13 -40
36 -85 -31 -258 -146 -377 -37 -38 -71 -69 -76 -69 -21 0 -174 70 -238 110
-170 104 -355 262 -355 303 0 11 76 87 87 87 4 0 2 -5 -5 -12 -7 -7 -12 -22
-12 -34 0 -12 -9 -33 -21 -48 -15 -20 -17 -27 -7 -30 7 -3 29 -10 50 -16 20
-6 39 -18 42 -27 6 -14 12 -11 34 15 28 33 32 34 159 46 29 3 62 10 74 16 11
7 27 9 34 6 8 -3 17 -1 20 4 4 6 20 10 36 10 17 0 50 11 75 25 51 28 58 30 51
12 -2 -6 2 -18 9 -25 12 -11 15 -10 21 3 4 12 8 13 13 5 5 -8 17 1 36 26 16
22 32 41 36 42 5 2 8 14 8 27 0 12 7 28 15 35 8 7 15 19 15 26 0 8 6 14 13 14
10 0 66 142 69 178 1 6 4 12 8 12 12 0 30 50 30 85 0 47 20 176 31 197 4 9 5
32 2 52 -3 22 -2 36 5 36 5 0 12 9 15 20 8 29 37 14 44 -23 l6 -30 131 6 c72
4 188 10 258 13 137 7 176 0 203 -40 15 -20 16 -20 45 -2 19 10 85 25 162 37
209 30 209 30 213 -188 2 -108 7 -172 18 -203 14 -41 15 19 16 698 l1 742
-1505 0 -1505 0 0 -720z m1704 236 c20 -1 38 -12 62 -40 19 -22 34 -44 34 -50
0 -6 14 -38 31 -71 24 -45 32 -76 34 -126 5 -99 -4 -159 -24 -159 -14 -1 -14
-2 -1 -13 8 -7 16 -21 17 -32 14 -118 14 -141 -2 -236 -18 -110 -52 -207 -86
-249 -20 -24 -20 -24 -16 -3 4 16 0 21 -14 20 -14 -1 -17 -6 -13 -20 4 -12 2
-17 -4 -13 -5 3 -17 -3 -26 -13 -9 -10 -29 -21 -44 -24 -16 -3 -32 -16 -38
-29 -5 -13 -9 -17 -7 -10 1 6 -4 12 -12 12 -8 0 -15 -7 -15 -15 0 -22 -17 -18
-23 4 -4 17 -10 18 -40 12 -19 -5 -40 -12 -47 -16 -9 -6 -9 -3 0 15 11 20 10
21 -9 10 -12 -6 -21 -7 -21 -1 0 5 7 12 16 15 8 3 12 11 8 17 -4 7 -1 10 7 7
17 -6 39 15 39 35 0 8 8 18 18 22 16 6 16 7 0 16 -24 13 -88 5 -99 -12 -7 -11
-9 -10 -9 5 0 19 0 19 -21 0 -21 -19 -22 -19 -15 4 8 24 -3 29 -23 10 -9 -9
-12 -9 -7 -1 3 6 0 13 -6 16 -10 4 -11 7 0 18 10 11 12 10 12 -6 0 -15 2 -17
9 -7 4 8 14 13 22 12 8 -1 23 -2 34 -1 18 1 19 2 3 12 -29 16 -21 29 20 29 20
0 44 5 52 10 11 8 5 10 -25 10 -69 0 -75 1 -75 16 0 9 11 14 30 14 25 0 30 4
30 24 0 13 -5 26 -12 28 -9 3 -9 6 -1 11 6 4 19 0 28 -9 12 -13 13 -19 4 -30
-19 -24 -2 -28 43 -11 24 9 50 15 58 13 32 -7 70 -26 70 -36 0 -7 6 -7 21 0
15 9 24 8 35 -1 11 -9 18 -9 26 -1 16 16 20 50 6 58 -8 5 -9 2 -5 -9 3 -10 2
-17 -3 -17 -6 0 -10 9 -10 20 0 21 -15 27 -25 10 -4 -7 -17 -1 -32 15 -14 14
-32 25 -39 25 -8 0 -14 4 -14 8 0 4 -11 9 -25 10 -14 1 -25 -3 -25 -8 0 -6
-15 -10 -34 -10 -19 0 -38 -4 -41 -10 -7 -12 -25 -13 -25 -2 0 4 14 13 31 19
l31 12 -27 28 c-15 15 -31 38 -36 51 -9 22 -29 31 -29 12 0 -5 -5 -10 -12 -10
-6 0 -20 -7 -30 -17 -14 -13 -18 -13 -18 -2 0 15 53 61 83 72 15 6 17 15 13
54 -3 27 -8 58 -12 71 -6 22 -4 23 37 20 39 -3 44 -6 44 -28 1 -42 26 -91 52
-101 13 -5 48 -8 76 -8 l52 2 -64 8 c-36 4 -71 15 -79 23 -9 8 -17 40 -20 70
l-4 56 32 0 c32 0 33 0 15 -20 -16 -18 -17 -20 -1 -26 10 -4 15 -13 11 -21 -4
-11 -1 -13 12 -8 10 4 30 7 46 6 15 -1 27 4 27 10 0 8 4 8 14 0 8 -7 22 -13
32 -15 11 -2 24 -5 29 -6 24 -5 55 1 55 11 0 6 -6 9 -14 6 -8 -3 -31 4 -52 15
-30 16 -35 17 -25 4 10 -12 3 -11 -32 6 -36 18 -42 24 -31 35 7 7 22 13 33 13
29 0 26 19 -5 30 -34 13 -64 13 -64 -1 0 -6 6 -9 13 -6 8 3 19 2 26 -2 7 -5
-14 -11 -49 -14 -33 -3 -67 -10 -74 -16 -16 -13 -99 -4 -136 16 -14 7 -31 13
-38 13 -7 0 -10 5 -7 10 3 6 -1 10 -9 10 -9 0 -16 5 -16 10 0 17 -88 11 -133
-9 -60 -27 -91 -36 -83 -22 4 6 2 11 -3 11 -6 0 -11 -7 -11 -15 0 -8 -7 -15
-15 -15 -19 0 -20 39 -1 46 8 3 16 18 20 34 4 21 10 28 20 24 8 -3 26 2 40 11
19 13 26 14 26 4 0 -7 2 -10 5 -8 2 3 0 19 -5 35 -5 16 -12 41 -15 55 -2 15
-12 29 -20 33 -9 3 -14 2 -11 -2 3 -5 0 -24 -7 -43 -9 -26 -17 -33 -33 -31
-13 2 -22 -2 -21 -10 0 -7 -1 -22 -2 -33 l-2 -20 -9 20 c-7 17 -9 14 -11 -15
-1 -19 -2 -41 -2 -47 1 -7 -3 -13 -7 -13 -12 0 -3 145 10 171 7 13 16 26 19
29 11 9 31 50 31 63 0 23 36 57 70 67 27 8 38 6 62 -11 41 -30 119 -34 148 -9
13 11 39 22 59 26 20 4 43 11 51 15 8 5 49 6 90 2 41 -3 88 -7 104 -7z m-398
-383 c-19 -5 -19 -6 3 -18 20 -10 16 -11 -33 -7 -36 3 -61 0 -71 -8 -8 -7 -15
-10 -15 -6 0 15 68 46 100 45 21 -1 27 -3 16 -6z m-243 -32 c-4 -3 -11 -10
-15 -15 -4 -4 -6 1 -5 12 1 12 6 18 15 15 7 -3 10 -9 5 -12z m72 -21 c3 -5 1
-10 -4 -10 -6 0 -11 5 -11 10 0 6 2 10 4 10 3 0 8 -4 11 -10z m40 0 c-3 -5
-12 -10 -18 -10 -7 0 -6 4 3 10 19 12 23 12 15 0z m153 -21 c-1 -38 -14 -43
-70 -31 -24 6 -33 10 -20 11 28 1 64 19 75 37 12 21 16 17 15 -17z m-228 11
c0 -5 -4 -10 -10 -10 -5 0 -10 5 -10 10 0 6 5 10 10 10 6 0 10 -4 10 -10z
m-36 -12 c-4 -6 1 -17 11 -25 14 -9 15 -13 4 -13 -20 0 -35 13 -33 28 3 20 4
22 15 22 5 0 7 -5 3 -12z m-144 -37 c0 -5 -9 -11 -20 -14 -20 -5 -26 3 -13 16
9 10 33 8 33 -2z m338 -11 c66 -8 95 -20 48 -20 -55 0 -167 23 -154 31 7 5 20
6 28 2 8 -3 43 -9 78 -13z m-170 -14 c3 -3 -6 -15 -19 -26 -19 -16 -15 -15 18
4 23 14 50 24 60 22 10 -2 47 -7 83 -11 104 -11 103 -10 81 -53 -11 -20 -30
-48 -44 -60 -14 -13 -31 -37 -37 -53 -7 -16 -19 -29 -27 -29 -8 0 -11 5 -8 10
14 23 -16 8 -31 -15 -25 -39 -30 -21 -5 20 22 38 27 60 11 50 -5 -3 -12 7 -16
22 -9 36 -25 46 -41 25 -13 -15 -13 -14 -7 7 4 17 3 21 -6 16 -9 -6 -9 -2 0
15 11 21 12 21 31 4 10 -9 19 -15 20 -13 5 25 4 47 -2 43 -4 -2 -9 1 -11 8 -6
16 -64 -29 -73 -56 -9 -23 -25 -8 -27 25 -2 50 1 58 23 54 12 -3 24 -7 27 -9z
m-97 -140 c15 -16 10 -29 -6 -16 -9 7 -14 27 -14 49 2 34 2 34 6 6 3 -16 9
-34 14 -39z m86 22 c-3 -8 -6 -5 -6 6 -1 11 2 17 5 13 3 -3 4 -12 1 -19z
m-117 -64 c16 2 30 2 30 0 0 -8 -34 -59 -45 -66 -15 -11 -47 59 -39 85 l7 22
8 -23 c7 -19 14 -22 39 -18z m700 -74 c0 -5 -5 -10 -11 -10 -5 0 -7 5 -4 10 3
6 8 10 11 10 2 0 4 -4 4 -10z m-480 -93 c0 -16 -18 3 -23 25 -6 22 -5 22 8 4
8 -11 15 -24 15 -29z m93 26 c16 -9 28 -56 18 -66 -7 -7 -18 -1 -32 17 -14 18
-24 24 -29 16 -10 -16 -34 16 -26 35 5 14 42 13 69 -2z m-228 -136 c3 -12 -1
-42 -10 -66 -8 -24 -15 -62 -15 -86 0 -35 -4 -44 -25 -53 -34 -16 -167 -16
-183 0 -17 17 -16 212 1 226 16 13 184 20 209 9 10 -4 20 -18 23 -30z m336 -3
c9 -8 26 -16 38 -17 28 -2 35 -24 10 -32 -13 -5 -18 -12 -14 -22 4 -13 3 -14
-10 -3 -8 7 -12 16 -9 21 3 5 0 9 -6 9 -7 0 -10 7 -6 15 4 12 0 14 -18 9 -18
-4 -25 -1 -29 15 -6 26 18 29 44 5z m-531 -380 c-32 -8 -130 -21 -130 -17 0
10 51 22 95 21 28 0 43 -2 35 -4z m1095 -263 c71 -13 148 -19 265 -20 145 0
170 -3 205 -21 21 -11 44 -20 51 -20 18 0 39 -29 28 -40 -12 -12 -82 6 -104
25 -10 9 -43 13 -105 12 -92 -1 -130 8 -104 24 8 5 -17 6 -56 3 -51 -4 -98 0
-172 15 -55 12 -113 21 -128 21 -15 0 -24 4 -20 10 9 14 26 13 140 -9z m-128
-17 c-3 -3 -12 -4 -19 -1 -8 3 -5 6 6 6 11 1 17 -2 13 -5z m140 -19 c43 -8
107 -16 143 -17 l65 -2 -60 -3 c-53 -4 -242 21 -254 33 -8 8 26 4 106 -11z
m-697 -3 c0 -4 -26 -13 -57 -19 -32 -6 -107 -23 -168 -37 -97 -23 -123 -26
-220 -20 l-110 6 -95 -41 c-52 -23 -123 -55 -157 -71 -35 -17 -63 -26 -63 -21
0 14 82 57 194 103 99 41 101 41 220 39 95 -1 146 4 236 23 63 13 126 29 140
35 30 12 80 14 80 3z m29 -26 c-2 -2 -22 -6 -44 -9 -28 -5 -34 -4 -20 3 19 8
73 14 64 6z m-195 -46 c-12 -5 -43 -11 -70 -14 l-49 -5 55 13 c63 16 95 19 64
6z m-354 -14 c0 -2 -13 -9 -30 -15 -35 -12 -41 -5 -7 9 25 10 37 12 37 6z
m198 -13 c-21 -2 -57 -2 -80 0 -24 2 -7 4 37 4 44 0 63 -2 43 -4z m-323 -40
c-33 -14 -88 -39 -123 -54 -34 -16 -60 -24 -57 -19 9 15 196 97 225 99 8 0
-12 -11 -45 -26z m1470 -288 c221 -8 329 -17 339 -26 5 -5 8 -10 5 -12 -2 -2
-94 3 -204 10 -220 15 -616 11 -700 -7 -102 -22 -262 -51 -340 -60 -76 -9
-273 -34 -360 -45 l-40 -5 40 15 c22 9 144 29 272 46 242 31 283 37 397 64
128 30 237 34 591 20z m163 -41 c67 -4 122 -10 122 -15 0 -4 -17 -5 -37 -2
-21 2 -168 7 -328 10 -270 5 -320 3 -525 -22 l-35 -5 35 11 c113 36 385 43
768 23z m165 -21 c-7 -2 -19 -2 -25 0 -7 3 -2 5 12 5 14 0 19 -2 13 -5z
m-1058 -34 c-49 -10 -121 -20 -160 -23 l-70 -5 60 10 c33 6 92 16 130 24 39 7
84 13 100 13 17 0 -10 -9 -60 -19z m-270 -39 c-22 -4 -76 -10 -120 -13 l-80
-6 85 13 c47 7 101 13 120 13 l35 1 -40 -8z"/>
<path d="M1197 2393 c-14 -13 -6 -30 19 -42 33 -15 37 -11 25 23 -10 25 -30
34 -44 19z"/>
<path d="M1740 2115 c14 -8 30 -14 35 -14 6 0 -1 6 -15 14 -14 8 -29 14 -35
14 -5 0 1 -6 15 -14z"/>
<path d="M1794 2120 c16 -5 33 -15 37 -22 7 -10 9 -10 9 -1 0 15 -32 33 -57
32 -10 0 -6 -4 11 -9z"/>
<path d="M1832 2040 c0 -14 2 -19 5 -12 2 6 2 18 0 25 -3 6 -5 1 -5 -13z"/>
<path d="M1568 1853 c7 -3 16 -2 19 1 4 3 -2 6 -13 5 -11 0 -14 -3 -6 -6z"/>
<path d="M1776 1770 c8 -43 14 -51 14 -19 0 13 -5 31 -10 39 -7 11 -8 5 -4
-20z"/>
<path d="M1525 1559 c-11 -17 1 -21 15 -4 8 9 8 15 2 15 -6 0 -14 -5 -17 -11z"/>
<path d="M920 1800 c11 -20 30 -28 30 -12 0 11 -22 32 -32 32 -5 0 -4 -9 2
-20z"/>
<path d="M2280 860 l-85 -6 93 -2 c60 -1 91 2 87 8 -3 6 -7 9 -8 8 -1 -1 -40
-5 -87 -8z"/>
<path d="M2415 825 c51 -22 82 -26 40 -5 -22 11 -47 19 -55 19 -8 0 -1 -6 15
-14z"/>
<path d="M1928 1955 c2 -14 6 -25 8 -25 2 0 4 11 4 25 0 14 -4 25 -9 25 -4 0
-6 -11 -3 -25z"/>
<path d="M1931 1874 c0 -11 3 -14 6 -6 3 7 2 16 -1 19 -3 4 -6 -2 -5 -13z"/>
<path d="M2578 866 c-6 -30 -2 -36 24 -36 15 0 19 6 16 27 -4 37 -34 43 -40 9z"/>
</g>
</svg>
